<svg xmlns="http://www.w3.org/2000/svg" viewBox="0 0 512 512">
  <defs>
    <linearGradient id="bg" x1="0" y1="0" x2="1" y2="1">
      <stop offset="0" stop-color="#6D5DFB"/>
      <stop offset="1" stop-color="#312E81"/>
    </linearGradient>
    <linearGradient id="page" x1="0" y1="0" x2="0" y2="1">
      <stop offset="0" stop-color="#FFFFFF"/>
      <stop offset="1" stop-color="#DDE7FF"/>
    </linearGradient>
  </defs>
  <rect width="512" height="512" rx="112" fill="url(#bg)"/>
  <circle cx="256" cy="236" r="154" fill="#FFFFFF" opacity=".08"/>
  <path d="M110 151c53-20 103-10 146 24v199c-43-34-93-44-146-24z" fill="url(#page)"/>
  <path d="M402 151c-53-20-103-10-146 24v199c43-34 93-44 146-24z" fill="#C7D2FE"/>
  <path d="M256 175v199" stroke="#6D5DFB" stroke-width="12" stroke-linecap="round"/>
  <path d="M143 203c31-8 60-3 84 10M143 246c31-8 60-3 84 10M143 289c31-8 60-3 84 10M369 203c-31-8-60-3-84 10M369 246c-31-8-60-3-84 10M369 289c-31-8-60-3-84 10" fill="none" stroke="#818CF8" stroke-width="9" stroke-linecap="round"/>
  <path d="M256 77l10 25 25 10-25 10-10 25-10-25-25-10 25-10z" fill="#FDE68A"/>
</svg>